HIERARCHY
ROOT Hips
{
	OFFSET -0.179506 -22.333345 2.821913
	CHANNELS 6 Xposition Yposition Zposition Zrotation Yrotation Xrotation 
	JOINT LeftUpLeg
	{
		OFFSET 6.951974 -9.140623 -0.681533
		CHANNELS 3 Zrotation Yrotation Xrotation
		JOINT LeftLeg
		{
			OFFSET 3.427654 -37.519855 -0.449580
			CHANNELS 3 Zrotation Yrotation Xrotation
			JOINT LeftFoot
			{
				OFFSET -1.359570 -39.796059 -4.369333
				CHANNELS 3 Zrotation Yrotation Xrotation
				JOINT LeftToe
				{
					OFFSET 2.635814 -5.579078 11.928840
					CHANNELS 3 Zrotation Yrotation Xrotation
					End Site
					{
						OFFSET 0.000000 0.000000 0.000000
					}
				}
			}
		}
	}
	JOINT RightUpLeg
	{
		OFFSET -6.767048 -9.052170 -0.431982
		CHANNELS 3 Zrotation Yrotation Xrotation
		JOINT RightLeg
		{
			OFFSET -3.829005 -38.256897 -0.885003
			CHANNELS 3 Zrotation Yrotation Xrotation
			JOINT RightFoot
			{
				OFFSET 1.577377 -39.841461 -4.231180
				CHANNELS 3 Zrotation Yrotation Xrotation
				JOINT RightToe
				{
					OFFSET -2.537174 -4.814398 12.334795
					CHANNELS 3 Zrotation Yrotation Xrotation
					End Site
					{
						OFFSET 0.000000 0.000000 0.000000
					}
				}
			}
		}
	}
	JOINT Spine
	{
		OFFSET -0.253288 10.896323 -2.669631
		CHANNELS 3 Zrotation Yrotation Xrotation
		JOINT Spine1
		{
			OFFSET 0.548704 13.518043 0.109247
			CHANNELS 3 Zrotation Yrotation Xrotation
			JOINT Spine2
			{
				OFFSET 0.145701 5.292222 2.542457
				CHANNELS 3 Zrotation Yrotation Xrotation
				JOINT Neck
				{
					OFFSET -0.277840 21.387037 -4.285703
					CHANNELS 3 Zrotation Yrotation Xrotation
					JOINT Head
					{
						OFFSET 0.515184 6.496960 5.134897
						CHANNELS 3 Zrotation Yrotation Xrotation
						End Site
						{
							OFFSET 0.000000 0.000000 0.000000
						}
					}
				}
				JOINT LeftShoulder
				{
					OFFSET 7.884473 12.174932 -3.408961
					CHANNELS 3 Zrotation Yrotation Xrotation
					JOINT LeftArm
					{
						OFFSET 9.097692 3.046888 -0.886815
						CHANNELS 3 Zrotation Yrotation Xrotation
						JOINT LeftForeArm
						{
							OFFSET 25.961220 -1.277207 -2.745643
							CHANNELS 3 Zrotation Yrotation Xrotation
							JOINT LeftHand
							{
								OFFSET 24.923361 0.898606 -0.117091
								CHANNELS 3 Zrotation Yrotation Xrotation
								End Site
								{
									OFFSET 0.000000 0.000000 0.000000
								}
							}
						}
					}
				}
				JOINT RightShoulder
				{
					OFFSET -8.175920 11.883285 -3.861528
					CHANNELS 3 Zrotation Yrotation Xrotation
					JOINT RightArm
					{
						OFFSET -9.601238 3.255117 -0.914307
						CHANNELS 3 Zrotation Yrotation Xrotation
						JOINT RightForeArm
						{
							OFFSET -25.374195 -1.332924 -2.140099
							CHANNELS 3 Zrotation Yrotation Xrotation
							JOINT RightHand
							{
								OFFSET -25.529810 0.777228 -0.555919
								CHANNELS 3 Zrotation Yrotation Xrotation
								End Site
								{
									OFFSET 0.000000 0.000000 0.000000
								}
							}
						}
					}
				}
			}
		}
	}
}
MOTION
Frames: 15
Frame Time: 0.033333
158.518631 -15.797490 99.047173 175.303375 -0.625099 86.999241 2.154774 0.789045 7.886496 -2.840031 -3.750573 -2.387992 3.368330 7.323693 -5.303773 nan nan nan -1.782023 -3.789948 8.720451 3.210982 1.984796 -3.748890 7.386523 -0.122494 0.218440 nan nan nan 0.273718 2.657904 3.991452 1.150609 -1.981037 2.284915 0.285444 0.292984 0.618069 -0.707196 3.130455 5.009758 1.155116 -0.011154 2.495198 -23.560748 2.245697 3.476781 -63.244164 -7.734834 10.308944 9.077882 -20.834024 5.693150 -6.544055 -10.126693 -13.937575 24.889702 -0.001946 4.715810 63.919671 8.271403 9.921189 -16.072420 17.344042 -13.297206 7.744301 3.181393 -18.282183 
158.486771 -15.737535 99.029579 175.193573 -1.072728 87.862102 1.434754 0.111082 7.058462 -2.651684 -3.458583 -2.538389 2.588318 8.261091 -4.911653 nan nan nan -1.955591 -1.818718 8.023045 3.250523 1.405227 -4.167324 7.140042 -1.687629 0.250994 nan nan nan -0.412352 2.811464 1.115382 1.005990 -2.322338 5.743882 0.716009 0.320680 -0.671362 -2.393031 3.597189 7.471575 3.232934 0.012491 -1.497829 -23.738400 1.466976 2.208505 -64.000409 -7.819751 11.371245 10.204825 -16.967180 -0.714430 -6.386601 -17.038987 -7.719400 24.933683 2.498995 4.509496 64.067037 7.080078 9.530501 -17.314895 15.878370 -16.873215 2.102089 12.448217 -14.078657 
158.492065 -15.724234 99.017151 175.233846 -1.114820 87.806472 1.402514 0.085574 7.110812 -2.657826 -3.551939 -2.539611 2.577420 8.346440 -4.906769 nan nan nan -1.944239 -1.597166 8.160279 3.228765 1.404425 -4.265515 7.108452 -1.908889 0.227108 nan nan nan -0.501892 2.815478 1.138688 0.982038 -2.321055 5.840680 0.827664 0.275774 -0.749786 -2.535437 3.556463 7.560380 3.268328 0.226677 -1.645667 -23.800326 1.411873 2.222658 -63.959600 -7.826636 11.452068 10.215747 -16.826446 -1.092744 -6.410765 -17.159633 -7.420528 24.876179 2.601468 4.480074 64.050617 7.045642 9.462666 -17.247201 15.887763 -17.266202 1.942823 12.617236 -14.288169 
158.504440 -15.711326 99.019356 175.272209 -1.105628 87.797171 1.420901 0.080344 7.110504 -2.662092 -3.552329 -2.520922 2.563156 8.355641 -4.909936 nan nan nan -1.923312 -1.584640 8.219880 3.234590 1.456603 -4.326813 7.090361 -1.963374 0.229068 nan nan nan -0.514029 2.802655 1.133743 0.973482 -2.324834 5.817958 0.824106 0.241589 -0.652787 -2.439588 3.486020 7.344205 3.361850 0.087299 -1.410022 -23.784770 1.480536 2.188590 -63.950688 -7.879112 11.461404 10.215122 -16.818778 -1.043486 -6.450716 -17.249823 -7.405191 24.960729 2.545422 4.416023 64.003756 7.091542 9.492684 -17.255672 15.865445 -17.228926 1.947968 12.607517 -14.274883 
158.510620 -15.697899 99.014061 175.304092 -1.089903 87.788146 1.453244 0.084265 7.148641 -2.653575 -3.637725 -2.563719 2.534755 8.359767 -4.962427 nan nan nan -1.886108 -1.616556 8.277582 3.195459 1.495754 -4.396325 7.024792 -1.949760 0.185859 nan nan nan -0.456640 2.771277 1.155597 0.932638 -2.321530 5.722950 0.826127 0.204398 -0.581699 -2.340306 3.610643 7.065963 3.285476 0.254157 -0.989027 -23.855856 1.549110 2.179680 -63.884857 -7.857062 11.416857 10.180825 -16.809693 -0.876274 -6.285815 -17.425402 -7.430931 24.942965 2.484279 4.452747 64.023924 7.138206 9.555457 -17.253551 15.900264 -17.038595 1.925379 12.587738 -14.218966 
158.499207 -15.721744 99.004799 175.355446 -1.175664 87.653581 1.349783 -0.071172 7.284105 -2.622316 -3.734702 -2.553515 2.575825 8.421063 -5.151723 nan nan nan -2.006425 -1.722224 8.410510 3.199299 1.449118 -4.380395 6.897759 -1.694993 0.131727 nan nan nan -0.286001 3.188791 0.918596 0.714555 -2.320036 6.430461 0.866254 -0.188309 -0.672680 -2.276837 3.728093 6.615388 3.148273 0.585505 -0.454972 -24.118782 1.224002 2.268115 -63.533438 -8.102511 11.201397 9.957691 -16.483406 -0.754204 -5.575643 -18.267343 -7.525325 24.953874 2.595663 4.575470 64.001405 7.422071 9.394825 -17.196403 15.871888 -17.133694 1.479805 12.798969 -13.984718 
158.467560 -15.704172 99.002533 175.277658 -1.234420 87.788092 1.234684 -0.087086 7.202664 -2.558740 -3.754353 -2.603268 2.553111 8.451822 -5.197551 nan nan nan -2.110521 -1.671344 8.247742 3.243189 1.384628 -4.315915 6.857525 -1.530379 0.129438 nan nan nan -0.293263 3.222474 0.648530 0.728328 -2.320331 6.683332 0.806960 -0.182965 -0.773202 -2.373559 3.799803 6.936100 3.203380 0.494496 -1.011347 -24.220885 1.319947 2.065231 -63.431831 -7.996356 11.286450 9.911364 -16.381238 -0.870836 -5.677958 -18.494184 -7.079052 25.022731 2.625241 4.491432 63.856531 7.323769 9.349132 -17.027093 15.826508 -17.119119 1.462768 12.974378 -13.579628 
158.463257 -15.647364 98.992203 175.204224 -1.253873 87.778406 1.206573 -0.067834 7.336364 -2.559242 -3.729028 -2.726382 2.563199 8.473069 -5.173802 nan nan nan -2.156695 -1.663211 8.323957 3.275368 1.395097 -4.369658 6.853841 -1.476341 0.140828 nan nan nan -0.343128 3.251550 0.496641 0.768881 -2.309368 6.790941 0.808764 -0.159180 -0.718237 -2.394605 3.855381 7.152812 3.217206 0.426741 -1.371842 -24.235211 1.360195 1.978667 -63.431067 -7.990866 11.255194 9.941458 -16.320259 -0.932362 -5.934983 -18.550057 -6.861114 25.082640 2.666580 4.460257 63.818997 7.284567 9.328889 -17.103382 15.744287 -17.126291 1.542920 13.046530 -13.377044 
158.464172 -15.622643 98.987785 175.181409 -1.243144 87.705959 1.237335 -0.072244 7.467103 -2.593371 -3.691824 -2.790846 2.564673 8.481655 -5.190894 nan nan nan -2.169361 -1.693462 8.443723 3.296400 1.403994 -4.427290 6.896384 -1.455394 0.146498 nan nan nan -0.324630 3.254202 0.550146 0.756461 -2.289991 6.723960 0.821142 -0.161883 -0.628421 -2.383160 3.882847 7.191123 3.223505 0.426664 -1.423075 -24.211933 1.382216 2.015893 -63.494565 -8.041753 11.149955 10.018322 -16.282675 -0.969801 -6.026472 -18.647824 -6.965039 25.023829 2.695653 4.465873 63.958288 7.328096 9.318876 -17.231803 15.617655 -17.154796 1.588335 13.065062 -13.455617 
158.446716 -15.629696 98.995110 175.096009 -1.296787 87.754456 1.164550 -0.028706 7.447177 -2.589480 -3.676143 -2.851419 2.587499 8.505519 -5.176546 nan nan nan -2.267764 -1.654182 8.326782 3.330147 1.391727 -4.328673 6.966212 -1.437763 0.109669 nan nan nan -0.339712 3.263413 0.509355 0.737096 -2.261139 6.731681 0.789671 -0.138286 -0.657417 -2.381421 3.925832 7.232166 3.234009 0.453445 -1.462134 -24.210267 1.410024 2.004328 -63.518298 -8.046702 11.153213 10.125111 -16.239488 -1.039553 -6.178176 -18.644985 -6.894469 25.012630 2.714793 4.467971 64.036462 7.345151 9.308022 -17.320995 15.522850 -17.246914 1.641110 13.066911 -13.455047 
158.442001 -15.630816 99.003471 175.061867 -1.319316 87.775543 1.127284 -0.003194 7.436215 -2.580709 -3.677534 -2.859433 2.603555 8.514052 -5.171694 nan nan nan -2.300247 -1.633854 8.289088 3.336980 1.393523 -4.302161 6.967978 -1.426352 0.087732 nan nan nan -0.364455 3.273383 0.462449 0.750069 -2.262082 6.782541 0.781099 -0.126020 -0.691422 -2.392077 3.948598 7.254390 3.231643 0.455755 -1.495665 -24.226685 1.406063 1.987413 -63.495716 -8.037738 11.168816 10.128959 -16.234678 -1.070615 -6.226895 -18.599097 -6.824233 25.054621 2.721844 4.470872 63.976268 7.330055 9.299201 -17.314114 15.528064 -17.285328 1.669171 13.069818 -13.416354 
158.444809 -15.629898 99.007965 175.056655 -1.322599 87.776681 1.120619 -0.000135 7.433295 -2.579940 -3.679135 -2.857057 2.607127 8.517397 -5.172385 nan nan nan -2.301470 -1.632235 8.285312 3.338519 1.396178 -4.299550 6.965224 -1.425849 0.083415 nan nan nan -0.366471 3.273920 0.456046 0.752763 -2.264583 6.788826 0.780508 -0.127119 -0.697451 -2.392070 3.946326 7.252499 3.229698 0.455297 -1.486726 -24.231198 1.404581 1.986396 -63.488188 -8.035611 11.172764 10.126644 -16.239731 -1.070854 -6.226505 -18.584297 -6.815480 25.060340 2.720317 4.473864 63.961962 7.323424 9.300527 -17.308168 15.534696 -17.288146 1.670621 13.067730 -13.415596 
158.437790 -15.630706 99.018372 175.023698 -1.389703 87.806974 0.979322 -0.007158 7.360227 -2.522604 -3.740272 -2.751436 2.804115 8.585007 -5.258482 nan nan nan -2.394503 -1.598982 8.246995 3.383881 1.367399 -4.280148 6.939287 -1.363495 0.006389 nan nan nan -0.426608 3.428922 0.296509 0.768058 -2.302319 7.156383 0.706526 -0.142462 -1.014508 -2.884592 3.812759 7.367726 3.416636 0.043496 -1.861416 -24.153941 1.288897 2.023015 -63.552495 -7.971590 11.192888 10.230986 -16.196056 -1.128746 -6.356580 -18.650502 -6.607410 25.157867 2.798093 4.501464 63.803996 7.075989 9.120172 -17.102381 15.773922 -17.384338 1.501815 13.234595 -13.209931 
158.448563 -15.642997 99.015717 175.121859 -1.338981 87.695859 1.062734 -0.005361 7.436106 -2.542448 -3.812768 -2.694984 2.780750 8.539786 -5.292380 nan nan nan -2.315118 -1.720925 8.387253 3.351895 1.396334 -4.310782 6.931620 -1.408348 0.012176 nan nan nan -0.365378 3.437410 0.507092 0.754686 -2.324345 7.065468 0.800508 -0.211241 -0.994078 -2.659174 3.775888 7.151338 3.180080 0.420982 -1.523518 -24.225584 1.252868 2.087923 -63.492055 -7.989513 11.100867 10.111207 -16.285965 -0.973694 -5.998357 -18.630812 -6.984593 24.987005 2.747883 4.550637 63.883270 7.142322 9.176913 -17.018284 15.850632 -17.253275 1.324478 13.116496 -13.334125 
158.460983 -15.635821 99.010223 175.196100 -1.277167 87.590459 1.172654 0.014797 7.538009 -2.583281 -3.801299 -2.685415 2.774514 8.466470 -5.279910 nan nan nan -2.228211 -1.796541 8.539892 3.328696 1.414873 -4.361084 6.926806 -1.434856 0.021998 nan nan nan -0.314486 3.386722 0.670530 0.731336 -2.335625 6.967206 0.767323 -0.216611 -0.938553 -2.855247 3.689087 7.129762 3.333917 0.121669 -1.528330 -24.112853 1.256378 2.088621 -63.556579 -8.052920 11.052622 10.084708 -16.166941 -0.961296 -5.931602 -18.780754 -7.133575 25.068791 2.753458 4.511107 63.844510 7.146300 9.147926 -16.963916 15.783409 -17.188389 1.257666 13.122722 -13.304748 
